<svg width="298" height="165" viewBox="0 0 298 165" fill="none" xmlns="http://www.w3.org/2000/svg">
<g clip-path="url(#clip0)">
<path d="M78.6555 80.0626C78.1668 80.8771 77.5639 81.4644 76.8467 81.8117C76.1295 82.1653 75.406 82.1337 74.6698 81.7296C74.6 82.7273 74.8982 83.6492 75.5647 84.4828C76.2311 85.3163 77.0688 86.0046 78.0843 86.5413C79.0998 87.0781 80.1978 87.4001 81.391 87.5138C82.5778 87.6274 83.6885 87.4506 84.723 86.9833C85.7576 86.5224 86.6144 85.7204 87.2935 84.5901C87.9726 83.4598 88.3153 81.8938 88.3153 79.8921C88.3153 78.225 87.8901 76.6969 87.0333 75.3077C86.1765 73.9185 85.0404 72.725 83.625 71.721C82.2097 70.7233 80.5913 69.9529 78.7698 69.4162C76.9546 68.8794 75.0569 68.6205 73.0767 68.6395C71.1029 68.6584 69.1417 68.9931 67.1996 69.6372C65.2575 70.2876 63.4741 71.2853 61.8493 72.6366C60.2245 73.9879 58.8155 75.7434 57.6287 77.8904C56.4418 80.0373 55.6168 82.6326 55.1661 85.6762C54.5695 89.7176 54.487 93.1906 54.9059 96.1016C55.3248 99.0126 56.0801 101.475 57.159 103.496C58.2443 105.517 59.5708 107.127 61.1448 108.333C62.7188 109.539 64.3817 110.474 66.127 111.143C67.8724 111.812 69.605 112.248 71.3187 112.45C73.0323 112.652 74.5555 112.753 75.882 112.753C77.2085 112.753 78.4905 112.52 79.7091 112.059C80.934 111.598 82.032 110.966 83.0158 110.17C83.9932 109.375 84.8246 108.459 85.51 107.417C86.1891 106.382 86.6652 105.296 86.9254 104.165C87.1856 103.035 87.2046 101.892 86.9761 100.743C86.7477 99.5936 86.2336 98.5201 85.4275 97.5161C85.0785 98.1854 84.4501 98.9368 83.5362 99.7704C82.6286 100.604 81.537 101.336 80.2549 101.968C78.9792 102.599 77.5512 102.997 75.9772 103.161C74.4032 103.325 72.7784 103.079 71.0965 102.41C69.1354 101.633 67.555 100.313 66.3492 98.4633C65.1433 96.6068 64.2928 94.5166 63.8041 92.1802C63.3154 89.8438 63.1504 87.4191 63.3027 84.8932C63.4614 82.3737 63.912 80.0752 64.6673 77.9977C65.4162 75.9202 66.4507 74.2153 67.7645 72.8829C69.0783 71.5505 70.6205 70.8812 72.404 70.8812C74.3651 70.8812 75.882 71.2032 76.9673 71.8536C78.0526 72.504 78.8015 73.2997 79.2204 74.2468C79.6393 75.194 79.7726 76.1917 79.6139 77.2463C79.4679 78.3071 79.1442 79.248 78.6555 80.0626Z" fill="black"/>
<path d="M167.745 94.7945C167.218 94.2009 166.679 93.8852 166.12 93.8473C166.577 94.0304 166.812 94.2704 166.831 94.5672C166.85 94.864 166.742 95.1039 166.514 95.287C166.285 95.4702 166.006 95.5459 165.676 95.508C165.346 95.4702 165.054 95.1734 164.813 94.6177C164.426 93.7273 164.14 92.5212 163.95 91.0057C163.759 89.4839 163.677 87.9684 163.715 86.4466C163.747 84.9248 163.899 83.5356 164.159 82.279C164.419 81.0161 164.813 80.2015 165.34 79.8353C164.813 79.1659 164.223 78.6292 163.556 78.225C162.96 77.8525 162.243 77.5683 161.405 77.3663C160.567 77.1642 159.621 77.2084 158.574 77.5052C157.978 77.6883 157.457 78.1556 157 78.8944C156.543 79.6332 156.181 80.5993 155.896 81.7865C155.509 81.3444 155.039 80.8708 154.48 80.3657C153.922 79.8668 153.268 79.3996 152.513 78.9765C151.764 78.5471 150.907 78.1998 149.943 77.9219C148.978 77.6441 147.924 77.5052 146.769 77.5052C145.544 77.5052 144.389 78.1935 143.31 79.5637C142.225 80.934 141.324 82.6579 140.606 84.7354C139.889 86.8129 139.42 89.0419 139.191 91.4351C138.963 93.8284 139.121 96.0574 139.661 98.1349C140.2 100.212 141.171 101.936 142.574 103.307C143.97 104.677 145.95 105.365 148.502 105.365C149.517 105.365 150.425 105.182 151.231 104.809C152.037 104.437 152.754 103.932 153.382 103.281C154.011 102.631 154.563 101.892 155.033 101.059C155.502 100.225 155.896 99.341 156.213 98.4191C156.81 100.421 157.647 102.082 158.733 103.395C159.818 104.708 161.183 105.371 162.826 105.371C164.432 105.371 165.721 105.094 166.679 104.538C167.644 103.982 168.342 103.288 168.78 102.454C169.218 101.621 169.433 100.711 169.433 99.7325C169.433 98.7474 169.287 97.8318 168.989 96.9793C168.678 96.1143 168.266 95.3881 167.745 94.7945ZM154.601 95.6028C154.341 96.2911 154.03 96.9099 153.681 97.4656C153.332 98.0213 152.919 98.4759 152.449 98.8295C151.98 99.1831 151.447 99.3599 150.85 99.3599C150.114 99.3599 149.53 98.9306 149.092 98.0781C148.654 97.2256 148.356 96.1711 148.197 94.9082C148.038 93.6452 147.988 92.2687 148.038 90.7658C148.089 89.2629 148.248 87.8863 148.508 86.6234C148.768 85.3605 149.111 84.306 149.53 83.4535C149.949 82.601 150.438 82.1717 150.996 82.1717C151.523 82.1717 151.999 82.2916 152.437 82.5316C152.875 82.7715 153.268 83.0683 153.617 83.4219C153.966 83.7756 154.271 84.1734 154.538 84.6154C154.798 85.0574 155.02 85.4868 155.191 85.8973C155.083 87.0844 155.033 88.3284 155.033 89.6229C155.033 90.9173 155.102 92.2182 155.242 93.5126C155.083 94.2199 154.868 94.9145 154.601 95.6028Z" fill="black"/>
<path d="M243.5 79.6142C243.291 78.5029 242.662 77.4673 241.609 76.5012C241.361 77.6504 240.771 78.5976 239.825 79.3364C238.88 80.0752 237.712 80.4857 236.309 80.5614C235.713 79.6332 235.053 78.9512 234.316 78.5029C233.231 77.9093 232.279 77.6441 231.46 77.6946C230.642 77.7514 229.975 77.9977 229.468 78.4461C228.96 78.8881 228.604 79.4816 228.395 80.2268C228.185 80.9656 228.147 81.7359 228.287 82.5316C228.427 83.3272 228.757 84.1039 229.283 84.868C229.81 85.6257 230.54 86.2509 231.486 86.7308C231.873 86.9518 232.273 87.1033 232.692 87.1728C233.111 87.2486 233.479 87.3054 233.796 87.337C234.183 87.3749 234.532 87.3749 234.843 87.337C235.23 89.225 235.262 90.93 234.951 92.4518C234.812 93.1211 234.596 93.7652 234.297 94.3967C233.999 95.0281 233.587 95.6091 233.066 96.1458C232.539 96.6826 231.879 97.1498 231.073 97.535C230.267 97.9265 229.29 98.1918 228.135 98.3433C226.631 98.5264 225.418 98.3054 224.492 97.6739C223.565 97.0425 222.873 96.2027 222.423 95.1418C221.966 94.0873 221.744 92.9001 221.744 91.5804C221.744 90.2669 221.902 89.004 222.213 87.7979C222.531 86.5919 223 85.5436 223.629 84.6596C224.257 83.7692 224.974 83.2136 225.78 82.9925C225.291 81.5465 224.663 80.3783 223.889 79.488C223.54 79.1154 223.146 78.7933 222.708 78.5155C222.27 78.2377 221.782 78.0735 221.242 78.0167C220.703 77.9598 220.1 78.023 219.433 78.2124C218.767 78.3955 218.05 78.7681 217.282 79.3238C216.235 80.0626 215.34 81.2308 214.603 82.8284C213.867 84.4196 213.372 86.2004 213.106 88.1642C212.845 90.128 212.845 92.1424 213.106 94.1946C213.366 96.2532 213.962 98.1349 214.889 99.8399C215.816 101.545 217.11 102.947 218.773 104.039C220.436 105.131 222.543 105.681 225.095 105.681C227.646 105.681 229.798 105.087 231.549 103.9C233.295 102.713 234.697 101.204 235.745 99.3663C236.792 97.5287 237.503 95.508 237.871 93.3043C238.239 91.1005 238.334 88.9977 238.156 86.996C239.343 86.7371 240.384 86.2256 241.279 85.4679C242.174 84.7101 242.815 83.8198 243.221 82.7968C243.615 81.7928 243.71 80.7256 243.5 79.6142Z" fill="black"/>
<path d="M137.795 96.6889C137.395 95.5775 136.665 94.624 135.618 93.8284C134.571 93.0327 133.295 92.3192 131.791 91.6877C130.287 91.0563 128.763 90.3932 127.227 89.686C126.002 89.1303 125.323 88.6504 125.184 88.24C125.044 87.8295 125.247 87.5012 125.787 87.2423C126.326 86.9834 127.081 86.8255 128.04 86.7687C129.004 86.7118 129.982 86.7434 130.978 86.8508C131.975 86.9644 132.857 87.1854 133.625 87.5201C134.393 87.8548 134.85 88.2968 134.99 88.8525C136.214 86.7371 137.001 84.8301 137.351 83.1252C137.49 82.4179 137.535 81.717 137.484 81.0098C137.433 80.3025 137.224 79.6837 136.855 79.147C136.487 78.6102 135.935 78.1745 135.205 77.8399C134.469 77.5052 133.473 77.341 132.216 77.341C130.642 77.341 129.062 77.3599 127.469 77.3978C125.876 77.4357 124.428 77.6188 123.115 77.9535C121.801 78.2882 120.684 78.806 119.757 79.5132C118.831 80.2204 118.247 81.2371 117.999 82.5695C117.752 83.9018 117.676 85.0448 117.764 85.992C117.853 86.9392 118.177 87.7727 118.735 88.4925C119.294 89.2124 120.1 89.8944 121.147 90.5195C122.194 91.151 123.559 91.814 125.241 92.5213C127.272 93.4116 128.757 94.1441 129.703 94.7187C130.648 95.2933 131.188 95.7543 131.327 96.1079C131.467 96.4615 131.289 96.7078 130.801 96.8594C130.312 97.0109 129.646 97.0614 128.808 97.0235C127.97 96.9857 127.05 96.8846 126.053 96.7204C125.057 96.5563 124.124 96.3416 123.248 96.0827C122.372 95.8238 121.642 95.527 121.046 95.1923C120.449 94.8576 120.17 94.504 120.208 94.1378C119.859 94.2514 119.465 94.5735 119.027 95.1102C118.634 95.5964 118.272 96.1711 117.948 96.8278C117.656 96.0385 117.269 95.3628 116.774 94.8071C116.247 94.2136 115.708 93.8978 115.149 93.8599C115.606 94.0431 115.841 94.283 115.86 94.5798C115.879 94.8766 115.771 95.1165 115.543 95.2997C115.315 95.4828 115.035 95.5586 114.705 95.5207C114.375 95.4828 114.083 95.186 113.842 94.6303C113.455 93.74 113.169 92.5339 112.979 91.0184C112.788 89.4966 112.706 87.9811 112.744 86.4593C112.776 84.9374 112.928 83.5482 113.188 82.2916C113.449 81.0287 113.842 80.2141 114.369 79.8479C113.842 79.1785 113.252 78.6418 112.585 78.2377C111.989 77.8651 111.272 77.581 110.434 77.3789C109.596 77.1768 108.65 77.221 107.603 77.5178C107.007 77.7009 106.486 78.1682 106.029 78.907C105.572 79.6458 105.204 80.6119 104.925 81.7991C104.538 81.3571 104.068 80.8835 103.51 80.3783C102.951 79.8795 102.297 79.4122 101.542 78.9891C100.793 78.5597 99.9363 78.2124 98.9716 77.9346C98.0069 77.6567 96.9533 77.5178 95.7982 77.5178C94.5733 77.5178 93.4181 78.2061 92.3392 79.5764C91.2539 80.9466 90.3526 82.6705 89.6355 84.748C88.9183 86.8255 88.4486 89.0545 88.2201 91.4478C87.9916 93.841 88.1503 96.07 88.6898 98.1475C89.2293 100.225 90.2003 101.949 91.603 103.319C92.9993 104.689 94.9794 105.378 97.5308 105.378C98.5463 105.378 99.4539 105.195 100.26 104.822C101.066 104.449 101.783 103.944 102.412 103.294C103.04 102.644 103.592 101.905 104.062 101.071C104.531 100.238 104.925 99.3536 105.242 98.4317C105.839 100.433 106.677 102.094 107.762 103.408C108.847 104.721 110.212 105.384 111.856 105.384C113.461 105.384 114.75 105.106 115.708 104.551C116.451 104.121 117.034 103.603 117.466 103.01C117.656 103.376 117.898 103.723 118.196 104.052C118.773 104.683 119.656 105.125 120.843 105.384C121.788 105.605 123.045 105.801 124.619 105.965C126.193 106.129 127.799 106.123 129.442 105.94C131.086 105.757 132.641 105.283 134.114 104.519C135.58 103.761 136.665 102.542 137.363 100.875C138.049 99.1894 138.195 97.8002 137.795 96.6889ZM103.624 95.6028C103.364 96.291 103.053 96.9099 102.703 97.4656C102.354 98.0212 101.942 98.4759 101.472 98.8295C101.003 99.1831 100.469 99.3599 99.8728 99.3599C99.1366 99.3599 98.5527 98.9305 98.1147 98.0781C97.6768 97.2256 97.3785 96.1711 97.2199 94.9082C97.0612 93.6452 97.0104 92.2687 97.0612 90.7658C97.112 89.2629 97.2706 87.8863 97.5308 86.6234C97.7911 85.3605 98.1338 84.306 98.5527 83.4535C98.9716 82.601 99.4603 82.1717 100.019 82.1717C100.546 82.1717 101.022 82.2916 101.459 82.5316C101.897 82.7715 102.291 83.0683 102.64 83.4219C102.989 83.7756 103.294 84.1734 103.56 84.6154C103.82 85.0574 104.043 85.4868 104.214 85.8973C104.106 87.0844 104.055 88.3284 104.055 89.6229C104.055 90.9173 104.125 92.2181 104.265 93.5126C104.106 94.2199 103.884 94.9145 103.624 95.6028Z" fill="black"/>
<path d="M211.005 93.5695C210.618 92.6791 210.167 92.0855 209.64 91.7888C210.097 92.4202 210.313 92.9317 210.294 93.3169C210.275 93.7084 210.135 93.9357 209.875 94.0115C209.615 94.0873 209.272 93.9673 208.853 93.6516C208.434 93.3358 208.066 92.7549 207.749 91.9024C207.609 91.492 207.463 90.7911 207.305 89.787C207.146 88.783 207.019 87.6085 206.911 86.2572C206.803 84.9059 206.727 83.4283 206.676 81.837C206.626 80.2457 206.613 78.6481 206.651 77.0568C206.683 75.4656 206.784 73.9248 206.936 72.4409C207.095 70.957 207.311 69.6498 207.59 68.5195C207.869 67.3892 208.231 66.4799 208.663 65.7979C209.101 65.1097 209.634 64.7876 210.262 64.8255C209.983 63.9351 209.526 63.2153 208.898 62.6596C208.339 62.1797 207.578 61.8513 206.613 61.6872C205.648 61.523 204.385 61.7692 202.811 62.4386C202.113 62.7354 201.453 63.4552 200.844 64.6045C200.234 65.7537 199.682 67.1998 199.193 68.9426C198.705 70.6854 198.286 72.6429 197.937 74.8088C197.588 76.9748 197.327 79.2291 197.15 81.5654C196.623 81.1234 196.033 80.6562 195.366 80.1762C194.7 79.6963 193.995 79.248 193.24 78.8439C192.485 78.4397 191.704 78.1051 190.879 77.8462C190.06 77.5873 189.242 77.4547 188.442 77.4547C187.255 77.4547 186.144 77.8525 185.11 78.6481C184.075 79.4438 183.168 80.4983 182.381 81.818C181.594 83.1315 180.946 84.6343 180.439 86.3203C179.931 88.0063 179.601 89.7239 179.442 91.4667C179.284 93.2095 179.334 94.9208 179.601 96.6068C179.861 98.2928 180.363 99.7956 181.099 101.109C181.835 102.423 182.838 103.483 184.113 104.279C185.389 105.075 186.97 105.472 188.861 105.472C189.946 105.472 190.943 105.258 191.85 104.835C192.758 104.412 193.589 103.85 194.344 103.168C195.093 102.479 195.773 101.715 196.363 100.863C196.959 100.01 197.48 99.1579 197.937 98.3054C198.425 100.193 199.054 101.759 199.828 103.003C200.596 104.247 201.561 104.999 202.716 105.258C204.569 105.668 206.099 105.649 207.305 105.201C208.511 104.759 209.456 104.09 210.135 103.199C210.814 102.309 211.278 101.273 211.525 100.086C211.773 98.899 211.843 97.7434 211.735 96.6131C211.633 95.4702 211.392 94.4598 211.005 93.5695ZM196.185 95.849C195.817 96.7015 195.398 97.4592 194.928 98.1286C194.459 98.7979 193.926 99.3347 193.329 99.7388C192.732 100.149 192.085 100.351 191.387 100.351C190.828 100.351 190.365 99.9156 189.997 99.0442C189.629 98.1728 189.35 97.0804 189.159 95.7669C188.969 94.4535 188.88 93.0327 188.899 91.5109C188.918 89.9891 189.02 88.5746 189.216 87.2549C189.407 85.9414 189.705 84.8427 190.111 83.9776C190.511 83.1062 191.012 82.6705 191.609 82.6705C192.834 82.6705 193.9 82.9926 194.808 83.643C195.715 84.2934 196.414 85.209 196.909 86.3961C196.909 87.5832 196.928 88.7514 196.959 89.9007C196.997 91.0499 197.067 92.1613 197.169 93.2348C196.877 94.1251 196.553 94.9966 196.185 95.849Z" fill="black"/>
<path fill-rule="evenodd" clip-rule="evenodd" d="M58.2062 116.51C58.3078 115.576 58.549 114.742 58.9171 114.022C59.2598 113.41 59.7485 112.835 60.3959 112.292C61.0433 111.749 61.9255 111.484 63.0488 111.484C64.0707 111.484 64.9783 111.762 65.7779 112.324C66.5776 112.879 67.2123 113.808 67.6883 115.108C68.1643 116.403 68.4817 118.146 68.634 120.324C68.7863 122.503 68.7292 125.218 68.4563 128.458C69.1354 127.087 70.0557 125.692 71.2108 124.271C72.3659 122.85 73.8447 121.417 75.6472 119.977C77.5512 118.43 79.03 117.211 80.0836 116.327C81.1371 115.443 81.9368 114.717 82.4827 114.136C83.0285 113.561 83.4029 113.075 83.606 112.677C83.8091 112.28 84.0122 111.793 84.2153 111.219C86.1511 112.766 87.3697 114.325 87.8584 115.892C88.3534 117.458 88.2899 118.954 87.6807 120.375C87.0714 121.796 85.9797 123.103 84.4184 124.296C82.8571 125.483 81.0039 126.494 78.8586 127.321C77.3291 127.896 76.0089 128.458 74.9046 128.994C73.8003 129.537 72.8229 130.093 71.9724 130.668C73.5337 130.238 74.911 130.245 76.1041 130.693C77.291 131.141 78.3319 131.893 79.2141 132.935C80.0963 133.976 80.8452 135.265 81.4545 136.799C82.0638 138.334 82.5779 139.944 82.984 141.636C83.3902 143.404 83.917 145.033 84.5644 146.53C85.2118 148.026 85.8845 149.346 86.5763 150.502C87.2745 151.657 87.9536 152.611 88.6136 153.369C89.2737 154.126 89.8386 154.638 90.2955 154.909C90.7525 155.181 91.0698 155.187 91.2412 154.935C91.4126 154.682 91.3618 154.126 91.0889 153.261C92.4852 153.728 93.5197 154.417 94.1988 155.313C94.8779 156.216 95.2714 157.176 95.3729 158.206C95.4745 159.235 95.2904 160.239 94.8144 161.23C94.3384 162.222 93.6276 163.042 92.6756 163.687C91.7235 164.337 90.5684 164.747 89.2102 164.931C87.852 165.114 86.3224 164.893 84.6215 164.28C82.819 163.63 81.3212 162.424 80.1343 160.662C78.9475 158.894 77.9511 156.861 77.1514 154.556C76.3517 152.251 75.698 149.839 75.1902 147.313C74.6825 144.793 74.1938 142.438 73.7368 140.259C73.2798 138.081 72.7911 136.224 72.2834 134.69C71.7756 133.162 71.1473 132.234 70.3984 131.905C69.275 132.916 68.3928 134.014 67.7454 135.202C67.1679 140.607 66.9521 144.73 67.1108 147.578C67.2631 150.426 67.5804 151.935 68.0564 152.118C67.8533 152.586 67.4472 153.047 66.8315 153.495C66.2222 153.943 65.5114 154.303 64.718 154.575C63.9183 154.846 63.0933 154.972 62.2428 154.954C61.3923 154.935 60.6307 154.695 59.9453 154.221C59.2662 153.754 58.733 153.021 58.3395 152.03C57.946 151.038 57.8381 149.712 58.0095 148.058C58.1428 146.795 58.2888 145.286 58.4411 143.518C58.5934 141.75 58.7457 139.881 58.898 137.898C59.0504 135.915 59.2027 133.888 59.355 131.817C59.5073 129.746 59.6279 127.776 59.7104 125.9C59.7929 124.025 59.8374 122.313 59.8374 120.766C59.8374 119.219 59.7866 117.982 59.685 117.066C59.5835 116.144 59.4121 115.607 59.1773 115.443C58.9425 115.298 58.6188 115.645 58.2062 116.51Z" fill="black"/>
<path fill-rule="evenodd" clip-rule="evenodd" d="M98.2353 146.454C97.588 147.534 97.1056 147.85 96.7819 147.401C96.4582 146.953 96.2615 145.993 96.198 144.534C96.1282 143.076 96.1536 141.245 96.2742 139.047C96.3948 136.85 96.5534 134.564 96.7565 132.183C96.9596 129.803 97.1818 127.472 97.4166 125.187C97.6578 122.901 97.8609 120.924 98.0259 119.27C98.1973 117.577 98.0259 116.201 97.5181 115.134C97.0104 114.073 96.3186 113.277 95.4554 112.753C94.5859 112.229 93.6212 111.97 92.5486 111.97C91.476 111.97 90.4732 112.197 89.5403 112.646C88.6073 113.094 87.8076 113.77 87.1412 114.673C86.4811 115.576 86.132 116.656 86.094 117.918C87.0777 117.413 87.8012 117.451 88.2582 118.026C88.7152 118.6 88.9881 119.649 89.077 121.158C89.1595 122.673 89.096 124.625 88.8739 127.024C88.6517 129.417 88.3534 132.183 87.979 135.321C87.4712 139.394 87.23 142.697 87.2681 145.242C87.2999 147.78 87.5474 149.776 88.0043 151.215C88.4613 152.655 89.115 153.64 89.9655 154.158C90.816 154.682 91.7997 154.941 92.9231 154.941C93.672 154.941 94.3067 154.821 94.8335 154.587C95.3603 154.354 95.8172 154.038 96.2107 153.64C96.6042 153.242 96.9152 152.794 97.1564 152.289C97.3912 151.784 97.6007 151.259 97.7657 150.723C98.1147 149.498 98.2671 148.077 98.2353 146.454Z" fill="black"/>
<path d="M144.351 152.181C144.199 150.811 144.116 149.138 144.097 147.155C144.078 145.172 144.078 142.987 144.097 140.588C144.116 138.195 144.091 135.77 144.021 133.32C143.951 130.87 143.799 128.489 143.564 126.184C143.329 123.879 142.929 121.834 142.364 120.053C141.806 118.272 141.044 116.839 140.092 115.759C139.14 114.679 137.934 114.136 136.475 114.136C135.218 114.136 134.088 114.471 133.085 115.134C132.083 115.803 131.188 116.7 130.407 117.836C129.626 118.973 128.935 120.268 128.344 121.726C127.748 123.185 127.246 124.726 126.84 126.348C126.669 124.656 126.421 123.059 126.098 121.568C125.774 120.072 125.342 118.777 124.797 117.679C124.251 116.58 123.584 115.715 122.785 115.083C121.985 114.452 121.008 114.136 119.852 114.136C118.799 114.136 117.847 114.363 116.996 114.812C116.146 115.26 115.372 115.873 114.673 116.649C113.975 117.426 113.353 118.342 112.814 119.402C112.268 120.463 111.779 121.594 111.335 122.781V122.945C111.164 124.599 110.332 132.467 110.161 134.538C109.99 136.61 109.844 138.656 109.729 140.67C109.66 141.826 109.621 142.918 109.602 143.96C109.958 140.405 110.383 137.159 110.878 134.235C111.151 132.613 111.462 131.009 111.824 129.424C112.179 127.839 112.579 126.431 113.023 125.206C113.468 123.98 113.95 122.989 114.477 122.231C115.004 121.474 115.575 121.095 116.184 121.095C116.762 121.095 117.168 121.77 117.409 123.122C117.65 124.473 117.777 126.191 117.79 128.281C117.809 130.371 117.764 132.669 117.663 135.17C117.561 137.677 117.453 140.07 117.333 142.356C117.212 144.642 117.123 146.662 117.054 148.412C116.984 150.161 117.022 151.342 117.155 151.954C117.326 152.889 117.758 153.609 118.456 154.114C119.154 154.619 120.005 154.922 121.008 155.036C122.01 155.143 123.134 155.029 124.371 154.682C125.609 154.341 126.878 153.792 128.173 153.034C127.799 152.712 127.538 152.017 127.38 150.956C127.227 149.896 127.132 148.588 127.1 147.035C127.069 145.488 127.075 143.745 127.126 141.819C127.177 139.893 127.202 137.898 127.202 135.846C127.507 134.078 127.849 132.335 128.224 130.604C128.598 128.874 129.024 127.334 129.5 125.982C129.976 124.631 130.483 123.532 131.029 122.686C131.575 121.84 132.165 121.417 132.813 121.417C133.257 121.417 133.593 121.821 133.834 122.635C134.069 123.444 134.253 124.536 134.368 125.906C134.488 127.277 134.552 128.843 134.571 130.611C134.59 132.379 134.577 134.216 134.545 136.123C134.514 138.03 134.463 139.925 134.393 141.8C134.323 143.676 134.266 145.412 134.215 147.016C134.164 148.62 134.133 150.016 134.114 151.203C134.095 152.39 134.139 153.223 134.241 153.691C134.412 154.625 134.844 155.364 135.542 155.907C136.24 156.45 137.09 156.772 138.093 156.879C139.096 156.987 140.219 156.873 141.457 156.526C142.701 156.185 143.964 155.598 145.259 154.77C144.802 154.417 144.503 153.552 144.351 152.181Z" fill="black"/>
<path d="M111.481 122.92C111.684 120.539 111.392 118.455 110.884 116.94C110.377 115.424 109.679 114.281 108.796 113.511C107.914 112.734 106.943 112.292 105.89 112.185C104.836 112.078 103.89 112.242 103.059 112.671C102.227 113.1 101.599 113.764 101.174 114.641C100.749 115.525 100.723 116.58 101.098 117.805C101.644 117.009 102.056 116.75 102.348 117.022C102.64 117.293 102.799 118.057 102.83 119.32C102.862 120.583 102.786 122.32 102.602 124.536C102.418 126.753 102.132 129.43 101.758 132.562C101.25 136.635 100.863 140.02 100.609 142.722C100.355 145.425 100.279 147.622 100.381 149.315C100.482 151.007 100.799 152.295 101.326 153.179C101.853 154.063 102.659 154.701 103.751 155.099C104.976 155.566 106.036 155.73 106.937 155.585C107.838 155.44 108.593 155.168 109.209 154.777C109.92 154.347 110.535 153.766 111.043 153.047C110.567 152.579 110.218 151.739 109.996 150.533C109.774 149.327 109.647 147.888 109.615 146.208C109.602 145.494 109.602 144.737 109.615 143.96C109.507 145.052 110.415 135.391 110.32 136.54C110.307 136.54 111.545 125.174 111.481 122.92Z" fill="black"/>
<path fill-rule="evenodd" clip-rule="evenodd" d="M162.427 112.027C161.068 112.892 159.843 114.01 158.758 115.38C157.838 116.536 156.987 118.026 156.207 119.863C155.426 121.701 155.001 123.936 154.931 126.563C154.861 129.664 155.179 132.455 155.877 134.943C156.575 137.431 157.457 139.508 158.53 141.188C159.602 142.861 160.77 144.099 162.046 144.888C163.322 145.684 164.521 145.93 165.638 145.646C166.825 145.355 167.891 144.44 168.824 142.886C169.757 141.339 170.512 139.464 171.09 137.266C171.668 135.069 172.067 132.682 172.289 130.106C172.512 127.529 172.499 125.054 172.264 122.673C171.382 122.781 170.519 122.743 169.687 122.566C168.856 122.383 168.151 122.099 167.574 121.701C166.622 121.019 165.949 120.141 165.562 119.08C165.168 118.02 164.984 116.946 165.003 115.866C165.022 114.786 165.226 113.795 165.613 112.892C166.006 111.989 166.489 111.358 167.066 110.998C167.986 110.385 168.799 110.189 169.516 110.404C170.227 110.619 170.842 110.96 171.35 111.433C171.959 112.008 172.486 112.728 172.931 113.593C173.134 113.991 173.33 114.395 173.514 114.812C173.698 115.228 173.883 115.67 174.048 116.138C174.727 116.068 175.476 115.86 176.294 115.519C177.113 115.178 177.792 114.591 178.332 113.763C178.706 115.854 178.579 117.54 177.951 118.815C177.322 120.097 176.466 121.057 175.374 121.707C175.679 123.867 175.825 126.127 175.806 128.489C175.787 130.851 175.596 133.175 175.222 135.46C174.847 137.746 174.295 139.931 173.565 142.002C172.835 144.073 171.928 145.905 170.836 147.49C169.751 149.075 168.481 150.338 167.034 151.272C165.587 152.207 163.969 152.68 162.166 152.68C160.364 152.68 158.707 152.251 157.197 151.386C155.686 150.521 154.322 149.352 153.116 147.875C151.91 146.397 150.863 144.705 149.981 142.792C149.098 140.885 148.394 138.864 147.867 136.736C147.34 134.608 146.998 132.467 146.845 130.308C146.693 128.148 146.737 126.09 146.972 124.145C147.213 122.2 147.645 120.35 148.273 118.607C148.902 116.858 149.644 115.311 150.488 113.959C151.339 112.608 152.278 111.49 153.319 110.606C154.354 109.722 155.401 109.154 156.454 108.901C157.508 108.649 158.555 108.769 159.59 109.255C160.637 109.728 161.576 110.657 162.427 112.027Z" fill="black"/>
<path fill-rule="evenodd" clip-rule="evenodd" d="M188.69 153.047C188.112 152.472 187.718 151.392 187.515 149.801C187.312 148.216 187.223 146.34 187.261 144.181C187.395 143.025 187.579 141.661 187.795 140.076C188.017 138.491 188.296 136.843 188.639 135.132C188.981 133.421 189.381 131.728 189.838 130.049C190.295 128.375 190.835 126.866 191.444 125.534C192.053 124.202 192.745 123.128 193.507 122.32C194.275 121.511 195.132 121.101 196.084 121.101C197.004 121.101 197.74 121.499 198.299 122.288C198.857 123.084 199.295 124.126 199.6 125.42C199.904 126.715 200.101 128.211 200.184 129.904C200.266 131.596 200.291 133.351 200.26 135.17C200.228 136.989 200.158 138.801 200.057 140.6C199.955 142.4 199.847 144.067 199.727 145.602C199.606 147.136 199.523 148.456 199.473 149.573C199.422 150.691 199.447 151.48 199.549 151.954C199.752 152.889 200.196 153.609 200.875 154.114C201.554 154.619 202.399 154.922 203.401 155.036C204.404 155.143 205.528 155.029 206.765 154.682C208.009 154.341 209.272 153.792 210.567 153.034C210.123 152.674 209.831 151.847 209.672 150.546C209.52 149.251 209.418 147.654 209.367 145.766C209.317 143.871 209.285 141.775 209.266 139.47C209.247 137.165 209.171 134.842 209.037 132.499C208.904 130.156 208.663 127.889 208.326 125.692C207.984 123.494 207.47 121.537 206.771 119.825C206.073 118.114 205.166 116.738 204.042 115.689C202.919 114.648 201.491 114.123 199.758 114.123C198.362 114.123 197.105 114.395 195.988 114.932C194.865 115.475 193.862 116.201 192.98 117.123C192.098 118.045 191.323 119.112 190.657 120.337C189.997 121.562 189.407 122.856 188.899 124.227L189.051 122.932C189.292 120.52 189.153 118.537 188.645 116.99C188.137 115.443 187.439 114.281 186.557 113.505C185.675 112.728 184.704 112.286 183.65 112.179C182.597 112.071 181.645 112.223 180.794 112.639C179.944 113.056 179.309 113.713 178.884 114.61C178.459 115.513 178.433 116.573 178.808 117.799C179.353 117.003 179.76 116.744 180.033 117.016C180.305 117.287 180.464 118.051 180.515 119.314C180.566 120.577 180.496 122.313 180.312 124.53C180.128 126.746 179.842 129.424 179.468 132.556C178.96 136.629 178.585 140.013 178.344 142.716C178.109 145.418 178.04 147.616 178.141 149.308C178.243 151.001 178.56 152.289 179.087 153.173C179.614 154.057 180.407 154.695 181.461 155.092C182.685 155.56 183.745 155.724 184.647 155.579C185.548 155.433 186.303 155.162 186.912 154.77C187.585 154.341 188.175 153.766 188.69 153.047Z" fill="black"/>
<path fill-rule="evenodd" clip-rule="evenodd" d="M227.64 112.027C226.281 112.892 225.057 114.01 223.971 115.38C223.051 116.536 222.2 118.026 221.42 119.863C220.639 121.701 220.214 123.936 220.144 126.563C220.074 129.664 220.392 132.455 221.09 134.943C221.788 137.431 222.67 139.508 223.743 141.188C224.815 142.861 225.983 144.099 227.259 144.888C228.535 145.684 229.734 145.93 230.851 145.646C232.038 145.355 233.104 144.44 234.037 142.886C234.97 141.339 235.725 139.464 236.309 137.266C236.887 135.069 237.287 132.682 237.509 130.106C237.731 127.529 237.718 125.054 237.484 122.673C236.601 122.781 235.738 122.743 234.907 122.566C234.075 122.383 233.371 122.099 232.793 121.701C231.841 121.019 231.168 120.141 230.781 119.08C230.388 118.02 230.204 116.946 230.223 115.866C230.242 114.786 230.445 113.795 230.832 112.892C231.226 111.989 231.708 111.358 232.286 110.998C233.206 110.385 234.018 110.189 234.735 110.404C235.446 110.619 236.062 110.96 236.57 111.433C237.179 112.008 237.706 112.728 238.15 113.593C238.353 113.991 238.55 114.395 238.734 114.812C238.918 115.228 239.102 115.67 239.267 116.138C239.946 116.068 240.695 115.86 241.514 115.519C242.332 115.178 243.012 114.591 243.551 113.763C243.925 115.854 243.799 117.54 243.17 118.815C242.542 120.097 241.685 121.057 240.593 121.707C240.898 123.867 241.044 126.127 241.025 128.489C241.006 130.851 240.816 133.175 240.441 135.46C240.067 137.746 239.514 139.931 238.785 142.002C238.055 144.073 237.147 145.905 236.055 147.49C234.97 149.075 233.701 150.338 232.254 151.272C230.807 152.207 229.188 152.68 227.386 152.68C225.583 152.68 223.927 152.251 222.416 151.386C220.906 150.521 219.541 149.352 218.335 147.875C217.129 146.397 216.082 144.705 215.2 142.792C214.318 140.885 213.613 138.864 213.087 136.736C212.56 134.608 212.217 132.467 212.065 130.308C211.912 128.148 211.957 126.09 212.192 124.145C212.433 122.2 212.864 120.35 213.493 118.607C214.121 116.858 214.864 115.311 215.708 113.959C216.558 112.608 217.504 111.49 218.538 110.606C219.573 109.722 220.62 109.154 221.674 108.901C222.727 108.649 223.774 108.769 224.809 109.255C225.85 109.728 226.796 110.657 227.64 112.027Z" fill="black"/>
<path fill-rule="evenodd" clip-rule="evenodd" d="M185.979 55.1705C218.253 69.492 249.219 84.4828 280.864 97.4529C287.915 91.151 294.274 77.4862 298 68.3427C263.766 58.2457 224.885 39.283 191.78 16.5695C192.237 25.1257 193.024 37.4139 185.979 55.1705Z" fill="#CE181E"/>
<path fill-rule="evenodd" clip-rule="evenodd" d="M117.003 50.8955C125.78 55.9219 135.51 61.9966 146.338 64.2824C151.231 58.5046 155.985 50.0431 159.628 42.1183L146.877 33.5304L117.003 50.8955Z" fill="#A70E13"/>
<path fill-rule="evenodd" clip-rule="evenodd" d="M17.3013 97.2067C61.6018 80.7256 106.797 57.81 147.08 33.5936C140.327 27.1906 123.978 17.3398 112.941 16.4874C110.351 18.6912 16.546 66.4357 0 71.1906C3.35744 76.4569 11.5575 89.2124 17.3013 97.2067Z" fill="#CE181E"/>
<path fill-rule="evenodd" clip-rule="evenodd" d="M151.263 0.385182C164.451 17.7629 165.429 40.306 145.563 64.5034C159.755 65.5706 173.241 62.0155 184.482 57.69C192.593 43.8421 192.98 31.9581 192.199 16.0201C181.188 6.01779 163.626 -0.966138 151.263 0.385182Z" fill="#D71920"/>
<path fill-rule="evenodd" clip-rule="evenodd" d="M112.788 16.5631C120.436 5.20322 136.03 -1.85017 152.081 0.423077C162.027 11.5367 164.14 25.3972 158.422 42.4024C141.203 28.8955 127.811 20.3835 112.788 16.5631Z" fill="#ED1C24"/>
<path fill-rule="evenodd" clip-rule="evenodd" d="M280.832 62.4891L269.002 92.5655C270.074 93.0264 271.185 93.4432 272.257 93.8978L284.545 64.0046L280.832 62.4891Z" fill="#FFF200"/>
<path fill-rule="evenodd" clip-rule="evenodd" d="M239.692 44.7893L228.046 74.2784C243.304 81.2371 252.64 85.4742 270.239 93.1338C273.057 85.7962 278.96 70.4265 282.038 62.988C266.234 56.5092 250.647 49.8157 239.692 44.7893Z" fill="#E6E7E8"/>
<path fill-rule="evenodd" clip-rule="evenodd" d="M237.826 43.9242L226.351 73.508C227.487 74.0448 228.731 74.5878 229.855 75.093L241.73 45.7176C240.365 45.0987 239.064 44.4989 237.826 43.9242Z" fill="#FFF200"/>
<path fill-rule="evenodd" clip-rule="evenodd" d="M245.442 47.3846L233.555 76.779L232.742 76.4128L244.624 47.0184L245.442 47.3846Z" fill="black"/>
<path fill-rule="evenodd" clip-rule="evenodd" d="M248.889 48.9191L237.058 78.3766L236.246 78.0104L248.076 48.5718L248.889 48.9191Z" fill="black"/>
<path fill-rule="evenodd" clip-rule="evenodd" d="M253.014 50.7313L241.114 80.2646L240.308 79.8731L252.195 50.384L253.014 50.7313Z" fill="black"/>
<path fill-rule="evenodd" clip-rule="evenodd" d="M257.349 52.6194L245.398 82.1653L244.586 81.7801L256.543 52.2658L257.349 52.6194Z" fill="black"/>
<path fill-rule="evenodd" clip-rule="evenodd" d="M261.195 54.2675L249.231 83.8703L248.419 83.4977L260.376 53.9202L261.195 54.2675Z" fill="black"/>
<path fill-rule="evenodd" clip-rule="evenodd" d="M265.568 56.1303L253.604 85.8026L252.786 85.43L264.743 55.783L265.568 56.1303Z" fill="black"/>
<path fill-rule="evenodd" clip-rule="evenodd" d="M269.833 57.9237L257.806 87.6653L256.987 87.2928L268.995 57.57L269.833 57.9237Z" fill="black"/>
<path fill-rule="evenodd" clip-rule="evenodd" d="M273.673 59.5339L261.62 89.3703L260.802 89.004L272.854 59.1866L273.673 59.5339Z" fill="black"/>
<path fill-rule="evenodd" clip-rule="evenodd" d="M277.9 61.2893L265.816 91.2141L264.99 90.8542L277.081 60.942L277.9 61.2893Z" fill="black"/>
<path fill-rule="evenodd" clip-rule="evenodd" d="M191.85 16.62C192.644 20.6424 195.487 37.275 192.053 54.3875C191.825 55.5304 191.59 56.585 191.349 57.5637C189.565 56.7618 187.776 55.9661 185.979 55.1705C193.024 37.4139 192.237 25.1194 191.78 16.5695L191.85 16.62Z" fill="#A70E13"/>
<path fill-rule="evenodd" clip-rule="evenodd" d="M105.579 20.5792C115.467 21.5327 133.625 24.57 146.001 34.244L147.08 33.5936C140.327 27.1906 123.978 17.3398 112.941 16.4874C112.535 16.8347 109.856 18.3186 105.579 20.5792Z" fill="#BC141A"/>
</g>
<defs>
<clipPath id="clip0">
<rect width="298" height="165" fill="white"/>
</clipPath>
</defs>
</svg>
